# xmcd
#
# Track frame offsets: 
#        150
#        16322
#        33109
#        46811
#        60333
#        74405
#        87964
#        104836
#        120528
#        135502
#        150051
#        167583
#        184118
#        199415
#        216049
#
# Disc length: 3058 seconds
#
# Revision: 0
# Processed by: cddbd v1.5.2PL0 Copyright (c) Steve Scherf et al.
# Submitted via: ExactAudioCopy v0.95b2
#
DISCID=c00bf00f
DTITLE=Andreas Oscar - An deiner Seite ...
DYEAR=2012
DGENRE=Country
TTITLE0=Schlüssel für mein Herz
TTITLE1=Jahreszeiten
TTITLE2=Er sagt "No"
TTITLE3=Engel, Teufel, Lady und Sphinx (Radio Version)
TTITLE4=Wohin du auch gehst
TTITLE5=Vergessene Gefühle
TTITLE6=Ein Haus ist Daheim nur mit dir
TTITLE7=Die Nadel im Heu
TTITLE8=Sie trägt meinen Namen
TTITLE9=Miss Grady
TTITLE10=25 Jahre nur mit dir
TTITLE11=Sorry little Lady
TTITLE12=Das Glück hat keinen Plan
TTITLE13=Die Zeit mit dir
TTITLE14=Engel, Teufel, Lady und Sphinx (Dance Version)
EXTD=
EXTT0=
EXTT1=
EXTT2=
EXTT3=
EXTT4=
EXTT5=
EXTT6=
EXTT7=
EXTT8=
EXTT9=
EXTT10=
EXTT11=
EXTT12=
EXTT13=
EXTT14=
PLAYORDER=
